{"title":"The Hunger Games-Mockingjay Part 2 2015 HD-TS XVID AC3 HQ Hive-C","uid":12834338,"size":1862550102,"categoryP":"video","categoryS":"movies","magnet":"?xt=urn:btih:58934f4425efb3c456869052ee04b0694908e7e2&amp;dn=The+Hunger+Games-Mockingjay+Part+2+2015+HD-TS+XVID+AC3+HQ+Hive-C&amp;tr=udp%3A%2F%2Ftracker.leechers-paradise.org%3A6969&amp;tr=udp%3A%2F%2Fzer0day.ch%3A1337&amp;tr=udp%3A%2F%2Fopen.demonii.com%3A1337&amp;tr=udp%3A%2F%2Ftracker.coppersurfer.tk%3A6969&amp;tr=udp%3A%2F%2Fexodus.desync.com%3A6969","seeders":14,"leechers":4,"uploader":"makintos13","files":3,"time":1448424160,"description":"screens:\r\n \nhttp://imgmak.com/KK6\r\n \nhttp://imgmak.com/KK9\r\n \nhttp://imgmak.com/KKM\r\n \nhttp://imgmak.com/KKO\r\n \nhttp://imgmak.com/KKP\r\n \nhttp://imgmak.com/KKY\r\n \nhttp://imgmak.com/KK0\r\n\r\n&quot;::::::::::::\r\n\r\nThe.Hunger.Games-Mockingjay.Part.2.2015.HD-TS.XVID.AC3.HQ.Hive-CM8\r\n\r\nThx Hive\r\n\r\nCM8 Doing It Right The First Time\r\n\r\nSources:\r\n\r\nVideo: Italian 1080p Incoming\r\nAudio: Sweet Line Big Thx to S4NDM4N\r\nbig thx guys\r\n\r\nNotes:\r\n\r\nVery nice quality video as usual,no movements, no flicker, was cammed a bit too much to the right side, but will do just fine\r\n\r\nEncode:\r\n\r\nMovie had cpl darker scenes and daylight were already perfect so i had to cut movie in 20 pieces and adjust brightness and contrast\r\nas well as colours as needed. Movie itself is complete just no rolling endcredits\r\n\r\nAudio as usual a nice line from S4NDM4N, just first 3mins have some slight distortions here and theire,the rest is just fine\r\n\r\ngot very nice\r\nwill do me till retail\r\nenjoy\r\n\r\nVideo: 720x400 @bitrate 1700 2pass\r\nAudio: English Stereo Line 2.0\r\nSample: yes included\r\n \nhttp://www.imdb.com/title/tt1951266/\r\n\r\nGeneral\r\nComplete name: The.Hunger.Games-Mockingjay.Part.2.2015.HD-TS.XVID.AC3.HQ.Hive-CM8.avi\r\nFormat: AVI\r\nFormat/Info: Audio Video Interleave\r\nFile size: 1.72 GiB\r\nDuration: 2h 5mn\r\nOverall bit rate: 1 967 Kbps\r\nWriting application: Nandub v1.0rc2\r\nWriting library: Nandub build 1853/release\r\n\r\nVideo\r\nID: 0\r\nFormat: MPEG-4 Visual\r\nFormat profile: Advanced   \r\nFormat settings, BVOP: 2\r\nFormat settings, QPel: Yes\r\nFormat settings, GMC: No warppoints\r\nFormat settings, Matrix: Default (H.263)\r\nMuxing mode: Packed bitstream\r\nCodec ID: XVID\r\nCodec ID/Hint: XviD\r\nDuration: 2h 5mn\r\nBit rate: 1 699 Kbps\r\nWidth: 720 pixels\r\nHeight: 400 pixels\r\nDisplay aspect ratio: 16:9\r\nFrame rate: 29.970 fps\r\nColor space: YUV\r\nChroma subsampling: 4:2:0\r\nBit depth: 8 bits\r\nScan type: Progressive\r\nCompression mode: Lossy\r\nBits/(Pixel*Frame): 0.197\r\nStream size: 1.49 GiB (86%)\r\nWriting library: XviD 1.2.1 (UTC 2008-12-04)\r\n\r\nAudio\r\nID: 1\r\nFormat: AC-3\r\nFormat/Info: Audio Coding 3\r\nCodec ID: 2000\r\nDuration: 2h 5mn\r\nBit rate mode: Constant\r\nBit rate: 256 Kbps\r\nChannel(s): 2 channels\r\nSampling rate: 48.0 KHz\r\nCompression mode: Lossy\r\nStream size: 229 MiB (13%)\r\nAlignment: Split accross interleaves\r\nInterleave, duration: 33 ms (1.00 video frame)\r\nInterleave, preload duration: 500 ms","torrent":{"xt":"urn:btih:58934f4425efb3c456869052ee04b0694908e7e2","amp;dn":"The+Hunger+Games-Mockingjay+Part+2+2015+HD-TS+XVID+AC3+HQ+Hive-C","amp;tr":["udp%3A%2F%2Ftracker.leechers-paradise.org%3A6969","udp%3A%2F%2Fzer0day.ch%3A1337","udp%3A%2F%2Fopen.demonii.com%3A1337","udp%3A%2F%2Ftracker.coppersurfer.tk%3A6969","udp%3A%2F%2Fexodus.desync.com%3A6969"],"infoHash":"58934f4425efb3c456869052ee04b0694908e7e2","infoHashBuffer":{"type":"Buffer","data":[88,147,79,68,37,239,179,196,86,134,144,82,238,4,176,105,73,8,231,226]},"announce":[],"urlList":[]}}